<svg version="1" xmlns="http://www.w3.org/2000/svg" width="933.333" height="933.333" viewBox="0 0 700.000000 700.000000"><path d="M335 .6c-60.6 3.3-115.5 19.8-165.5 50-24.3 14.6-45.2 31.1-66.5 52.4C45.7 160.2 11.8 230.8 2.4 312.5c-2.2 19.2-2.2 55.3 0 75 9.2 81.3 43.4 152.4 101.1 210 56.4 56.5 127.3 90.4 209 100.1 18.9 2.2 56.1 2.2 75 0 109.4-12.9 202.1-71.3 259.7-163.6 27.3-43.8 44.4-93.6 50.4-146.5 3.5-31.1 1.8-71.7-4.2-103-25.8-134.4-127.5-241.6-259.8-274-17.1-4.1-27.8-6-45.6-7.9-14.2-1.6-42-2.6-53-2zm99.1 140.3l2.9 3-.2 28.3-.3 28.3h-39l-.3 8.7-.3 8.8H302V199.7l-18.7.4-18.8.4-.3-25.5c-.2-14 0-27 .3-28.9.4-1.8 1.7-4.4 3-5.7l2.4-2.4h161.3l2.9 2.9zM278 238.5V251h-55v-25h55v12.5zm199 0V251h-55v-25h55v12.5zm-79 6v9.5h-96v-18l47.8-.3c26.2-.1 47.8-.3 48-.5.1-.1.2 4.1.2 9.3zm0 35.5v9h-96v-18h96v9zm-120 8.5V301H172v-11.8c0-6.5.3-12.2.7-12.5.3-.4 24.2-.7 53-.7H278v12.5zm249.8.2l.3 12.3H422v-25l52.8.2 52.7.3.3 12.2zM398 315v9h-96v-18h96v9zm-120 31.5V362H124v-31h154v15.5zm298 0V362H422v-31h154v15.5zm-178 3.7v9.3l-48-.3-48-.2v-17l47.8-.3c26.2-.1 47.8-.3 48-.5.1-.1.2 4 .2 9zm0 35.8v9h-96v-18h96v9zm-120 54.5V483H49v-49h25v-36h204v42.5zM626 416v17.9l12.8.3 12.7.3.3 24.2.2 24.3H422v-85h204v18zm-228 5.2v9.3l-48-.3-48-.2v-18h96v9.2zm-.2 38c-.1 13.4-.4 20.4-.5 15.5l-.4-8.7H302v-18h95v-6.5c0-3.6.2-6.5.5-6.5s.4 10.9.3 24.2z"/><path d="M331 185v16h39v-32h-39v16z"/></svg>