<?xml version="1.0" encoding="UTF-8" standalone="no"?>
<!-- Created with Inkscape (http://www.inkscape.org/) -->

<svg
   xmlns:dc="http://purl.org/dc/elements/1.1/"
   xmlns:cc="http://creativecommons.org/ns#"
   xmlns:rdf="http://www.w3.org/1999/02/22-rdf-syntax-ns#"
   xmlns:svg="http://www.w3.org/2000/svg"
   xmlns="http://www.w3.org/2000/svg"
   xmlns:sodipodi="http://sodipodi.sourceforge.net/DTD/sodipodi-0.dtd"
   xmlns:inkscape="http://www.inkscape.org/namespaces/inkscape"
   version="1.1"
   id="svg4518"
   width="541"
   height="720"
   viewBox="0 0 541 720"
   sodipodi:docname="vase.svg"
   inkscape:version="0.92.4 (5da689c313, 2019-01-14)">
  <metadata
     id="metadata4524">
    <rdf:RDF>
      <cc:Work
         rdf:about="">
        <dc:format>image/svg+xml</dc:format>
        <dc:type
           rdf:resource="http://purl.org/dc/dcmitype/StillImage" />
        <dc:title></dc:title>
      </cc:Work>
    </rdf:RDF>
  </metadata>
  <defs
     id="defs4522" />
  <sodipodi:namedview
     pagecolor="#ffffff"
     bordercolor="#666666"
     borderopacity="1"
     objecttolerance="10"
     gridtolerance="10"
     guidetolerance="10"
     inkscape:pageopacity="0"
     inkscape:pageshadow="2"
     inkscape:window-width="1920"
     inkscape:window-height="1001"
     id="namedview4520"
     showgrid="false"
     inkscape:zoom="1.0805556"
     inkscape:cx="270.5"
     inkscape:cy="360"
     inkscape:window-x="1911"
     inkscape:window-y="-9"
     inkscape:window-maximized="1"
     inkscape:current-layer="svg4518" />
  <g
     id="g4528"
     transform="translate(0.92545067)">
    <path
       style="fill:#8f5822"
       d="m 251.5,718.93635 c -25.123,-3.39146 -47.8146,-11.54291 -67.37914,-24.20445 -9.79489,-6.33894 -14.64913,-11.0061 -17.92264,-17.2319 -2.27976,-4.33582 -2.66585,-6.40656 -2.9065,-15.58867 -0.27225,-10.38784 -0.4496,-11.09862 -9.35086,-37.47649 C 137.91078,576.93152 123.31526,539.59896 100.99132,489 76.292145,433.01736 63.355188,397.01413 54.638056,360 44.15967,315.50734 40.771273,270.11023 45.05737,231.63974 l 0.987144,-8.86026 -7.936435,-10.63974 C 7.2948499,170.83093 -4.1741462,136.19403 1.4729627,101.5 6.4328347,71.028133 21.631497,52.305729 46.0882,46.540919 c 11.743798,-2.768188 22.600174,-2.016547 47.435025,3.284164 13.821595,2.95006 21.382575,3.649556 21.860535,2.022405 3.46258,-11.787904 10.02492,-19.643127 21.98857,-26.320643 C 170.82072,6.8575965 241.64015,-3.5266345 304.5,1.020965 367.88388,5.6064757 416.80752,25.387991 423.98111,49.3313 l 1.17707,3.928684 6.4215,-0.657902 c 3.53182,-0.361846 13.95874,-2.21585 23.17091,-4.120007 18.65494,-3.855978 29.31756,-4.386499 40.50668,-2.015419 18.91658,4.008601 34.43575,18.862863 41.14747,39.384534 5.10344,15.60423 5.37331,21.43491 1.95087,42.14881 -5.00339,30.28236 -20.6832,66.00397 -39.63487,90.29581 l -2.96136,3.79581 1.37031,13.20419 c 2.03308,19.59055 1.76214,67.29873 -0.48666,85.69421 -7.26325,59.41427 -22.77442,106.69831 -52.67008,160.55871 C 422.23374,520.71437 409.93041,551.48999 387.4242,623 c -8.09058,25.70661 -8.66997,28.12733 -8.88426,37.11946 -0.19891,8.34645 -0.63151,10.47906 -3.26889,16.11501 -8.6664,18.51968 -38.19518,35.82699 -70.51857,41.3321 -11.03956,1.88019 -43.32054,2.71053 -53.25248,1.36978 z M 108.02838,179.23557 c 33.67121,-36.61998 34.76515,-38.05063 38.3601,-50.16707 1.81597,-6.12058 2.19331,-22.40808 0.61529,-26.55857 -1.46933,-3.864652 -14.9695,-9.904397 -20.50377,-9.173046 -24.87614,3.287371 -32.861142,2.821269 -50.752176,-2.962516 -13.990414,-4.522799 -20.93958,-4.471814 -25.830747,0.189516 -6.626606,6.31522 -7.520976,13.510256 -3.944852,31.735586 2.840774,14.47769 6.982821,26.84678 13.625417,40.68858 8.124947,16.9307 23.776489,39.59614 26.801512,38.81201 0.63668,-0.16503 10.36983,-10.31905 21.629226,-22.56449 z M 465.7862,197.25 c 16.24615,-19.42615 29.74861,-48.19491 35.15722,-74.90708 2.73601,-13.51266 2.68346,-20.67826 -0.19342,-26.372959 -4.97733,-9.852504 -13.03476,-11.326184 -30.09452,-5.504199 -16.6342,5.676757 -25.20991,6.167669 -50.15548,2.871122 -3.16818,-0.418673 -5.5844,0.194927 -11.6189,2.95062 -4.19039,1.91357 -7.93902,3.997196 -8.33029,4.630286 -1.66101,2.68756 -2.50683,14.34966 -1.54729,21.33382 1.82437,13.27899 6.36461,20.55763 26.04169,41.74839 9.44818,10.175 21.0553,22.8875 25.79359,28.25 4.73829,5.3625 9.14605,9.75 9.79502,9.75 0.64897,0 2.96754,-2.1375 5.15238,-4.75 z"
       id="path4534"
       inkscape:connector-curvature="0" />
    <path
       style="fill:#72461b"
       d="m 259,719.3622 c -3.025,-0.21996 -6.4,-0.78825 -7.5,-1.26286 -1.1,-0.47462 -6.275,-1.6188 -11.5,-2.54263 -18.5719,-3.2837 -41.39582,-12.6456 -57.47889,-23.57665 C 168.29793,682.3131 164.77646,676.1618 164.49952,660.5 c -0.16833,-9.51941 -0.51584,-11.00924 -7.23084,-31 C 140.22837,578.77044 125.33879,540.69374 100.76317,485 69.297858,413.6927 55.284742,368.83223 47.931915,315.87024 45.163761,295.93138 44.21754,257.65215 45.978895,236.86112 l 1.249112,-14.74451 -6.984343,-9.3083 C 30.288562,199.54075 22.855182,187.85026 16.529885,175.51358 11.020031,164.76733 4.6530079,147.02305 3.3774159,138.85892 3.0028369,136.46151 2.2319836,134.19733 1.6644085,133.8274 0.09959778,132.80751 0.20683674,103.76439 1.7773463,103.24088 2.4498058,103.01673 3,101.84929 3,100.64657 3,96.516946 7.115483,83.493373 10.788379,76 17.567553,62.169258 30.861296,51.559571 46,47.897736 c 8.225701,-1.989679 24.753295,-1.519002 36.5,1.039457 25.38524,5.528962 32.34274,6.371647 33.54392,4.062807 0.42921,-0.825 1.56798,-3.75 2.53061,-6.5 C 123.83609,31.468967 148.04577,18.637546 187.59724,9.9171241 201.12893,6.9336184 228.84688,3 236.33825,3 c 2.34396,0 4.79759,-0.5358361 5.4525,-1.1907468 1.54809,-1.54808975 62.97572,-1.75335446 64.02089,-0.2139303 0.3786,0.5576303 6.31336,1.5661804 13.18836,2.2412223 49.90373,4.899943 92.02149,22.2716018 101.51651,41.8709348 1.54342,3.185886 3.13225,6.46752 3.53072,7.29252 1.02783,2.128005 7.13995,1.573254 27.45277,-2.491683 21.53046,-4.308604 28.1423,-4.944631 37.64748,-3.621502 24.33746,3.3878 40.84417,18.79686 47.43691,44.28249 0.90071,3.481882 2.12734,7.368618 2.72585,8.63719 1.32448,2.807335 1.24654,15.682145 -0.11255,18.591185 -0.54021,1.15628 -1.9485,7.27732 -3.12953,13.60232 -5.16064,27.63764 -19.90776,61.18855 -36.47749,82.98928 -5.42264,7.13454 -5.46378,7.27764 -4.45955,15.51072 0.4696,3.85 1.3029,15.62799 1.85177,26.17332 3.14284,60.38268 -8.09494,123.48094 -31.90613,179.14754 -7.40144,17.30335 -11.78926,26.16058 -22.38145,45.17914 -21.56443,38.7195 -33.74232,69.08581 -55.80339,139.1492 -8.44713,26.8271 -9.29454,30.25363 -9.85544,39.8508 -0.49226,8.42287 -1.14443,11.64914 -3.29674,16.30897 -8.03861,17.40386 -38.94189,35.11632 -69.23974,39.68529 -4.4,0.66353 -8.73385,1.58157 -9.63077,2.04009 -1.88406,0.96317 -27.72748,1.91986 -35.86923,1.32785 z m 43.5,-10.84548 C 322.81418,704.9456 341.13548,697.34917 353.72267,687.2786 365.88276,677.54975 369,671.76571 369,658.93154 c 0,-7.03841 0.9363,-10.76717 9.94387,-39.60078 21.61409,-69.18763 36.06011,-105.61515 55.29122,-139.42394 34.03538,-59.83507 51.00529,-116.64471 54.93757,-183.91287 1.20457,-20.60608 0.26152,-49.06768 -2.24076,-67.6273 l -1.09657,-8.13336 6.0024,-8.09543 c 20.38892,-27.49853 33.72621,-59.75813 38.64244,-93.4665 1.23061,-8.43773 1.34566,-12.11716 0.52109,-16.66442 C 528.29149,87.063479 523.37485,76.341313 515.39707,67.977437 502.44675,54.400381 484.65819,51.185367 457.10355,57.441763 451.2716,58.765932 441.775,60.571064 436,61.453168 c -11.08194,1.692714 -10.7119,1.484893 -16,8.985768 -2.84001,4.028391 -11.22066,10.913902 -18.24954,14.993747 -4.79489,2.783145 -6.36728,4.283829 -5.44982,5.201286 0.27549,0.275499 5.03364,-1.380227 10.57366,-3.679389 l 10.07276,-4.180296 8.76935,1.740124 c 6.49639,1.289097 11.7519,1.615756 20.27647,1.260296 9.99575,-0.416807 12.95189,-0.978695 22.50712,-4.278049 17.09083,-5.901341 26.544,-5.184359 35.05259,2.658587 9.04376,8.336249 10.80194,19.261088 6.49283,40.344758 -4.84336,23.69763 -14.16545,45.71862 -28.12324,66.43372 -5.927,8.79643 -7.86687,12.42803 -7.11959,13.32853 1.10838,1.33565 -0.40727,5.62321 -3.23912,9.16296 -1.36274,1.7034 -1.82844,1.77094 -4.04211,0.58622 -2.16125,-1.15667 -2.75226,-1.11244 -4.34039,0.32479 -1.01115,0.91508 -2.26019,1.66378 -2.77566,1.66378 -0.51546,0 -4.84041,-4.45037 -9.61099,-9.88971 -4.77059,-5.43934 -16.46341,-18.28816 -25.98406,-28.55294 C 402.6691,153.68563 399.66525,149.99696 395.44714,141.5 c -4.83836,-9.74641 -6.79641,-19.76375 -6.04492,-30.92579 l 0.60093,-8.92579 -2.25158,2.0944 c -1.62393,1.51058 -7.26914,3.20924 -20.25157,6.09375 -64.92503,14.42541 -102.16758,15.58524 -167.34498,5.21158 -9.71026,-1.54549 -17.91706,-2.52607 -18.23733,-2.17907 -0.32027,0.34701 -0.20873,10.52376 0.24785,22.61502 0.68501,18.14035 0.57195,22.99196 -0.64663,27.74855 -3.92264,15.31155 -15.22267,28.41139 -37.96087,44.00706 -4.91807,3.3732 -12.47256,9.69709 -16.78776,14.05307 -6.64926,6.71212 -8.67473,9.61945 -13.28112,19.06359 -5.84891,11.9916 -11.58159,30.34465 -14.06932,45.04269 -3.554691,21.00183 -2.844671,55.25129 1.56727,75.60094 3.10501,14.32155 20.88505,71.54837 67.10033,215.96911 l 26.22887,81.96406 17.09185,8.81679 17.09184,8.81679 0.28715,8.59446 0.28715,8.59446 -4.78715,-0.87586 c -11.81988,-2.16259 -30.49819,-9.23995 -39.31155,-14.89547 -8.68631,-5.57399 -10.87053,-12.22493 -7.29289,-22.20684 l 1.6926,-4.72249 -6.30405,-15.77751 C 120.12179,502.75771 84.487727,410.31751 77.545047,387.46792 c -4.623939,-15.21821 -9.088963,-37.25853 -11.155145,-55.0642 -2.030989,-17.50239 -1.456226,-49.04265 1.161916,-63.76037 1.648456,-9.26669 1.652268,-10.02785 0.06369,-12.7171 -1.618548,-2.73998 -1.594717,-3.04085 0.565799,-7.14336 1.240533,-2.35559 2.719731,-5.50361 3.287105,-6.9956 2.534205,-6.66404 34.830868,-39.71509 60.031588,-61.43381 23.0167,-19.83647 25.77033,-23.71663 28.99247,-40.85348 2.04781,-10.89124 2.9037,-26.89123 1.57164,-29.38021 C 159.87281,106.0253 158,107.54241 158,113.41203 c 0,8.0479 -2.469,19.46742 -5.77106,26.69212 -3.78161,8.27391 -8.55538,14.30794 -26.14116,33.04231 C 118.16106,181.59091 106.26242,194.6875 99.646362,202.25 92.503967,210.41413 86.882439,216 85.808584,216 84.813863,216 84,215.51425 84,214.92054 c 0,-0.67126 -1.098321,-0.83822 -2.904503,-0.44151 -2.485799,0.54597 -3.278662,0.14738 -5.5,-2.76494 C 74.167974,209.84251 73,207.19301 73,205.82631 73,204.41145 69.525818,197.99284 64.932084,190.9207 46.788195,162.98786 34.979143,130.08931 34.628967,106.5 34.492791,97.326633 36.804355,90.897849 42.301224,85.162371 50.810807,76.283403 60.662753,75.279726 78.5,81.474586 c 9.59713,3.333074 12.474093,3.881754 22.55846,4.302232 8.51594,0.355081 13.75996,0.03586 19.92189,-1.212705 4.59988,-0.932056 9.52358,-1.43334 10.94154,-1.113964 2.54523,0.573276 2.53985,0.552583 -0.42189,-1.622658 C 126.44934,78.118054 120.15454,71.223243 118.04707,67.092265 115.94413,62.970161 115.3456,62.700127 105.5,61.431478 102.75,61.077129 94.310743,59.488064 86.746095,57.900222 68.954533,54.165722 61.200524,53.499423 52.063256,54.919939 29.125278,58.485969 15.124805,74.78575 10.49837,103.31106 c -1.8934148,11.67426 -1.8866658,19.16667 0.0273,30.30795 4.0934,23.82785 16.751809,49.42306 38.236971,77.31489 l 6.49666,8.4339 -1.274494,16.5661 c -1.562649,20.31159 -0.804621,60.63934 1.448587,77.0661 6.945026,50.63194 22.159347,100.29381 49.721926,162.29997 25.59556,57.58107 41.46729,97.91396 59.06103,150.08455 7.94927,23.57191 8.13447,24.34088 8.21652,34.11548 0.10392,12.38151 1.72053,16.09495 9.83356,22.58833 16.7382,13.39668 45.79508,24.74747 71.23357,27.82671 10.85193,1.31359 37.97664,0.53953 49,-1.39832 z M 474.47785,275.68495 c -0.22521,-0.65172 -0.61768,-4.43836 -0.87216,-8.41475 -0.25447,-3.97639 -0.73981,-7.6782 -1.07852,-8.22624 -0.33872,-0.54805 -1.22618,-4.71964 -1.97215,-9.27021 -0.74596,-4.55056 -1.70065,-9.62375 -2.12153,-11.27375 -0.71974,-2.82162 -0.65593,-2.91081 1.07311,-1.5 2.61794,2.13612 11.4933,15.94138 11.4939,17.87831 2.8e-4,0.89193 0.90028,3.98902 2,6.88242 2.28405,6.00937 2.56625,10.5326 0.7495,12.01286 -2.30814,1.88062 -8.81899,3.22277 -9.27215,1.91136 z M 87,73.395728 C 76.917621,69.507324 75.460504,68.599005 75.833574,66.43495 c 0.544402,-3.157886 1.434369,-3.441502 7.696616,-2.452763 3.283395,0.518412 9.26431,1.456084 13.290921,2.083715 8.789549,1.370035 9.971899,2.942856 5.330059,7.090338 C 98.247145,76.644483 95.53497,76.687353 87,73.395728 Z M 438.84883,73.15624 c -1.97939,-1.768589 -2.96106,-3.421387 -2.59645,-4.371546 0.5974,-1.556812 7.66927,-3.139146 18.91254,-4.231688 3.1157,-0.302763 6.37531,-0.82308 7.24356,-1.15626 2.0713,-0.794834 3.91836,3.561892 2.24222,5.288804 C 463.10403,70.279067 447.20597,76 444.32437,76 c -1.26105,0 -3.72504,-1.279692 -5.47554,-2.84376 z M 101.7159,188 c 7.70194,-8.525 19.16666,-21.02561 25.47716,-27.77913 18.13171,-19.40462 22.25501,-27.96475 22.2862,-46.26696 0.023,-13.47875 -0.59056,-14.475597 -11.89925,-19.33376 l -8.57224,-3.6826 -8.19543,1.660605 C 109.05121,94.981266 92.407851,94.112981 81,90.521142 62.111326,84.573916 61.486638,84.455544 56.290062,85.838898 c -6.340025,1.687745 -10.88551,6.20193 -13.000283,12.910764 -1.475803,4.681788 -1.529022,6.383028 -0.439167,14.038848 3.510309,24.65859 12.93314,49.71417 26.592978,70.71149 6.766184,10.40069 15.383604,20.69658 16.996614,20.30714 C 87.139902,203.63822 94.013967,196.525 101.7159,188 Z m 365.61838,9.25 c 17.17889,-21.39249 29.12313,-46.62772 34.78919,-73.50097 3.0859,-14.63597 3.04972,-23.0477 -0.12347,-28.710328 -2.86803,-5.118054 -7.6118,-8.686507 -12.86175,-9.675121 -3.72232,-0.700947 -6.49246,-0.08348 -23.13825,5.157561 -11.40073,3.589597 -28.05189,4.459986 -39.79643,2.080238 l -8.17951,-1.657381 -8.25802,3.417182 c -10.46717,4.331327 -11.78145,6.044089 -12.46196,16.240319 -0.70137,10.5089 0.85233,18.22962 5.61767,27.91556 3.18235,6.46838 6.38792,10.62162 16.59425,21.5 6.95748,7.41562 18.80012,20.3405 26.31698,28.72196 7.51686,8.38146 14.21012,15.24396 14.87392,15.25 0.66379,0.006 3.64611,-3.02652 6.62738,-6.73902 z M 314.5,97.50289 c 29.98856,-2.87268 50.79923,-7.086932 67.41807,-13.652458 22.25988,-8.794096 35.46475,-20.665834 33.66389,-30.265251 C 414.1624,46.018306 404.48946,37.233548 389.08467,29.520928 359.04986,14.483584 301.17695,6.4459537 248,9.9265047 218.22204,11.875539 200.0611,14.596222 177.5,20.48808 c -41.7598,10.905622 -58.69617,25.080891 -50.41209,42.193522 6.02998,12.456278 29.77947,23.144353 66.19681,29.790811 17.40932,3.177339 33.74694,5.305536 49.71528,6.476088 16.30871,1.195499 51.31802,0.487672 71.5,-1.445611 z M 243,91.312904 C 213.33372,89.086737 175.87203,81.813211 158.16591,74.841599 144.86916,69.606134 133,60.061944 133,54.605273 133,50.598914 141.05824,42.71011 149.73587,38.221296 166.085,29.76413 197.95679,22.172291 232.5,18.50694 c 16.32573,-1.732309 55.54416,-1.987755 72.5,-0.472222 24.20022,2.163044 59.81897,9.341004 77,15.517188 13.98956,5.028923 21.74976,9.689097 25.06384,15.051382 5.39242,8.725129 -0.86876,16.965853 -18.45196,24.285759 C 369.15997,80.986896 334.8664,88.18029 302.5,90.951811 291.52016,91.892009 253.77024,92.121106 243,91.312904 Z M 343.31435,30.992644 C 339.65884,29.51986 311.25318,25.108287 298.5,24.0327 c -23.69987,-1.998817 -54.00828,-1.002687 -76.88669,2.526995 -11.34933,1.750974 -23.78038,4.274041 -24.47363,4.967288 -0.26016,0.260159 33.01449,0.444493 73.94365,0.409631 43.94021,-0.03743 73.52157,-0.424019 72.23102,-0.94397 z"
       id="path4532"
       inkscape:connector-curvature="0" />
    <path
       style="fill:#563416"
       d="m 261,719.12493 c -4.34367,-0.36991 -6.65831,-0.90262 -5.5,-1.26582 1.5319,-0.48033 1.27,-0.65426 -1.11901,-0.74311 -5.4402,-0.20233 -19.60179,-2.95503 -28.56436,-5.55228 -19.10834,-5.53738 -41.76287,-17.52488 -51.9508,-27.48944 -6.96043,-6.80782 -9.3463,-13.42594 -8.63512,-23.95278 0.40091,-5.9341 -0.11764,-8.38632 -4.99502,-23.6215 -14.61596,-45.65505 -34.64863,-97.21316 -60.22455,-155 C 67.571498,408.20511 52.464342,356.7429 46.8771,300.5 45.331904,284.94558 45.347793,248.7372 46.90638,233.77488 l 1.221376,-11.72512 -5.917148,-7.77488 C 31.903981,200.73241 21.96387,184.89285 15.994804,172.5 9.4867468,158.98811 6.6548845,150.90922 3.9802095,138.22409 2.968492,133.42584 2.0429009,130.175 1.9233403,131 c -0.1195605,0.825 -0.5527867,-1.2 -0.96272483,-4.5 -0.89898012,-7.23679 -0.0335521,-22.22081 1.17346043,-20.3173 0.5707364,0.90007 0.8401485,0.48691 0.8506113,-1.30448 0.00842,-1.44197 1.1131023,-6.949385 2.454845,-12.238691 C 13.254194,61.833218 34.564756,45.623769 65,47.336059 c 5.225,0.293959 15.881827,1.907609 23.681837,3.585889 7.80001,1.67828 17.338283,3.344779 21.196163,3.703331 l 7.01433,0.651913 0.58977,-2.888596 C 118.629,46.771341 123.34002,38.879633 128.10249,34.597763 145.01256,19.394153 192.21183,6.4074267 242,3.2592303 c 8.59405,-0.5434176 10.36289,-0.8617305 7,-1.2596925 -7.61553,-0.9012159 27.5806,-1.76433031 42,-1.02996562 7.425,0.37814742 11.475,0.81735592 9,0.97601892 -2.54798,0.1633416 1.84304,0.865455 10.12265,1.6185857 60.05266,5.4625163 103.5691,23.4517582 111.80268,46.2180572 L 423.63154,54.5 430.56577,54.350326 C 434.3796,54.268005 442,53.235557 447.5,52.055996 c 25.07795,-5.378356 34.80077,-6.122973 46.78686,-3.583149 15.61573,3.308936 27.99332,12.805562 35.50242,27.238999 4.07234,7.827551 8.19705,20.497492 8.22603,25.268054 0.0109,1.80049 0.26155,2.13146 0.87764,1.15908 1.13504,-1.79148 1.79631,3.72125 1.24716,10.39707 -0.30639,3.7246 -0.60697,4.46461 -1.20394,2.96395 -0.68055,-1.71078 -0.80576,-1.58434 -0.86588,0.87436 -0.14548,5.94944 -5.32007,28.57449 -9.22573,40.33803 -6.63799,19.99306 -18.76849,43.03666 -32.37406,61.4991 l -2.73512,3.71149 1.38231,14.78851 c 1.92732,20.61926 1.67234,65.78531 -0.47021,83.28851 -7.55605,61.72802 -22.18798,105.69609 -54.79943,164.66895 -19.9275,36.03587 -32.10666,66.89707 -53.90992,136.60421 C 376.89581,650.18231 376,653.75401 376,660.89743 c 0,13.55847 -4.25955,21.34314 -17.35161,31.71142 -14.15773,11.21225 -33.15696,19.20259 -54.51593,22.92728 -4.61694,0.80513 -10.02299,1.4955 -12.01345,1.53416 -2.93377,0.057 -3.24032,0.23301 -1.61901,0.92971 1.51717,0.65195 0.8897,0.8764 -2.59912,0.92971 -2.52952,0.0387 -7.92952,0.24211 -12,0.45211 -4.07049,0.21 -10.77588,0.0944 -14.90088,-0.25689 z m 38.68265,-8.67502 c 25.36198,-3.76589 46.88562,-13.39297 61.2719,-27.40564 7.27234,-7.08349 9.43917,-12.38806 9.61739,-23.54427 0.13527,-8.46697 0.77027,-10.98407 10.72165,-42.5 22.50313,-71.26724 34.17782,-100.14912 57.21564,-141.54512 28.06242,-50.42456 43.57655,-98.29577 50.70399,-156.45488 1.77256,-14.46394 1.71202,-69.59275 -0.0947,-86.19303 l -1.38143,-12.69303 5.4364,-7.30697 c 21.79519,-29.29453 37.03902,-67.81596 39.50842,-99.83846 1.87862,-24.361443 -12.288,-49.272496 -32.44149,-57.046185 -8.7264,-3.365983 -25.58296,-3.786021 -38.74046,-0.965347 -5.5,1.179076 -16.3,3.228173 -24,4.553547 -7.7,1.325374 -14.09139,2.427705 -14.20308,2.449623 -0.1117,0.02192 -0.94962,1.613067 -1.86206,3.535886 -2.54459,5.36233 -12.36903,13.79012 -23.17435,19.879861 C 376.12506,97.851165 356.94769,102.58875 310,107.17982 c -17.59351,1.72049 -65.84064,1.72199 -81.5,0.003 -32.08895,-3.52348 -60.05176,-9.333539 -73,-15.167795 -2.2,-0.991282 -7.00935,-3.159099 -10.68745,-4.81737 C 132.418,81.609103 122.97919,73.715461 119.52056,66.045587 118.41248,63.588307 116.8436,61.777775 115.58843,61.507801 114.43979,61.26074 108.1,60.139747 101.5,59.016704 94.9,57.893662 85.45,56.088205 80.5,55.004579 69.913799,52.687106 53.891385,52.383987 46.5,54.361353 31.0413,58.496911 19.579805,69.251215 13.545718,85.282307 5.8534091,105.71889 5.8986956,129.5177 13.674135,152.76739 c 5.569326,16.65309 19.52464,40.85222 34.86592,60.45904 5.232169,6.68693 5.584228,7.47087 5.043822,11.23114 -6.123682,42.60999 -1.449593,98.22812 12.544017,149.26429 9.239241,33.69649 19.430249,61.04342 41.023326,110.08353 23.72661,53.8856 39.55696,94.43769 55.35719,141.80674 8.1399,24.40338 8.49159,25.83038 8.49159,34.45493 0,13.85444 2.3906,18.00128 15.51525,26.91344 17.9093,12.16112 43.11362,21.60289 64.98475,24.34386 8.68401,1.08832 38.62343,0.54496 48.18265,-0.87445 z M 72.553575,256.75 c 1.456164,-4.75974 2.384907,-5.33635 2.416016,-1.5 0.02231,2.75126 -0.387036,3.75 -1.536979,3.75 -1.162728,0 -1.389673,-0.58089 -0.879037,-2.25 z M 77,245.23213 c 0,-0.97232 1.2375,-3.55982 2.75,-5.75 L 82.5,235.5 l 0.313088,4.3644 C 83.224832,245.60407 82.582834,247 79.531385,247 77.777464,247 77,246.45704 77,245.23213 Z M 80.847247,209.25 C 71.675098,199.40739 58.236329,178.84039 51.579101,164.45737 43.750447,147.54347 37.328582,124.34425 36.366145,109.5 35.620646,98.001723 37.869344,91.21869 44.432237,85.169226 c 7.839505,-7.226203 16.249835,-7.938458 31.901895,-2.701711 5.700212,1.907133 13.694437,3.987924 17.764944,4.623978 8.448274,1.320122 21.731654,0.631875 29.831044,-1.545624 l 5.43012,-1.459873 11.68603,5.015531 c 9.09454,3.903286 11.97718,5.612393 12.99892,7.707002 2.10276,4.310721 2.42272,23.459421 0.52766,31.578191 -3.3193,14.22044 -7.01701,19.41412 -36.57285,51.36902 -9.625,10.40627 -20.425,22.3379 -24,26.51473 -3.575,4.17684 -7.000921,7.62469 -7.613158,7.66189 -0.612237,0.0372 -3.105055,-2.06986 -5.539595,-4.68236 z m 7.284197,-5.5 c 0.832537,-0.6875 7.604038,-8 15.047776,-16.25 7.44375,-8.25 18.39647,-20.175 24.33939,-26.5 12.83363,-13.65874 17.36522,-20.31468 20.5424,-30.17242 2.6327,-8.16842 3.11611,-21.05567 1.06762,-28.46211 -1.09753,-3.9682 -1.49055,-4.283612 -9.76925,-7.840105 C 132.1045,91.4087 129.99993,90.912871 126.11683,91.405458 123.57757,91.727572 115.9038,92.275229 109.064,92.622472 94.727498,93.350309 86.533497,92.224254 74.558597,87.88059 57.267401,81.608544 46.538437,85.460269 42.487762,99.394101 c -1.778309,6.117169 -1.057271,13.385839 3.009065,30.333919 6.348312,26.45913 20.961754,55.01446 36.857885,72.02198 3.417493,3.65643 3.666471,3.74263 5.776732,2 z m 355.632716,-7.57767 c -8.6547,-9.71978 -21.36861,-23.69079 -28.25313,-31.04668 -6.88451,-7.35589 -14.05131,-15.90589 -15.92622,-19 -7.4692,-12.32624 -10.08176,-27.22836 -7.64498,-43.6073 l 1.20921,-8.127752 12.30701,-5.136037 12.30702,-5.136038 5.36846,1.44361 c 8.04193,2.162517 21.34407,2.845896 29.76939,1.52936 4.07051,-0.636054 12.06474,-2.716845 17.76495,-4.623978 C 476.75843,80.429111 483.01102,79 485.83681,79 c 16.0367,0 26.32797,12.692453 24.81392,30.60358 -1.82882,21.635 -11.70069,50.75522 -24.31715,71.73124 -7.57188,12.58893 -23.48938,32.74596 -25.73355,32.58751 -0.60502,-0.0427 -8.18116,-8.03021 -16.83587,-17.75 z M 467.138,198.75 c 12.40015,-14.87282 23.88215,-35.69884 30.18527,-54.75 4.1744,-12.61712 7.87791,-30.36337 7.92359,-37.96784 0.0523,-8.708902 -3.96371,-16.253816 -10.4472,-19.627174 -4.23715,-2.204586 -13.8273,-1.753795 -21.12483,0.992985 -12.40669,4.669867 -20.56586,5.887122 -34.98621,5.219542 -7.25374,-0.335807 -15.26619,-0.877669 -17.80545,-1.204138 -3.88735,-0.499791 -5.97042,-0.01208 -13.1836,3.086666 -9.70872,4.170825 -10.12597,4.773796 -11.221,16.215839 -0.81151,8.47954 1.34696,19.4381 5.47256,27.78412 3.53676,7.15483 7.25127,11.65311 29.47306,35.69194 9.30831,10.06943 19.50805,21.12056 22.6661,24.55806 3.15805,3.4375 6.21325,6.25 6.78935,6.25 0.5761,0 3.39236,-2.8125 6.25836,-6.25 z M 168.5,109.26168 c -3.73556,-0.5462 -5.5,-1.95266 -5.5,-4.38412 0,-2.74936 1.98397,-2.24723 6.5,1.64511 2.2,1.89617 3.55,3.38685 3,3.31262 -0.55,-0.0742 -2.35,-0.33235 -4,-0.57361 z M 93.75,73.299204 C 91.871248,72.820549 91.532499,71.285122 92.848153,69.211453 93.719547,67.838005 102,68.556323 102,70.005364 c 0,2.014962 -5.169141,4.078759 -8.25,3.29384 z m 346.22994,-1.82337 c -1.63025,-1.964332 -1.36759,-2.156661 4.04534,-2.962136 4.33738,-0.645428 4.53415,-0.566266 4.7388,1.906456 C 448.95982,72.785261 448.65577,73 445.11124,73 c -2.24405,0 -4.39711,-0.639532 -5.1313,-1.524166 z M 321.9512,98.58819 C 357.7492,94.426135 379.55911,88.465984 398.24871,77.737829 425.91824,61.855035 422.8484,44.41596 389.5,28.038352 370.71712,18.813965 344.11616,12.359733 310.5,8.8704618 294.32632,7.191675 251.59527,7.4896333 232,9.4178326 184.45212,14.096605 147.15466,25.064564 131.77745,38.89 120.47588,49.051087 120.2255,59.265676 131.0117,70.130797 145.55463,84.780146 180.13328,94.50974 238.5,100.37541 c 9.92652,0.99758 70.69222,-0.3038 83.4512,-1.78722 z M 247,90.375063 C 213.54006,87.97882 174.52509,80.430334 156.19667,72.806737 143.78774,67.645317 132.94857,57.888115 134.43191,53.21453 c 0.8579,-2.702993 6.90903,-8.773397 11.8628,-11.900572 12.42969,-7.84652 45.06656,-16.479544 78.91069,-20.873263 16.99239,-2.205989 55.79976,-3.000762 74.16304,-1.518855 43.02698,3.472252 86.35268,14.060595 100.91339,24.662163 14.50562,10.561462 7.3593,21.821516 -19.7241,31.07814 C 363.88736,80.35978 339.05535,85.584735 314.5,88.561489 302.06529,90.068902 258.91393,91.228283 247,90.375063 Z M 397.78188,48.75 c -0.21164,-0.6875 -4.63664,-3.378403 -9.83334,-5.979783 C 373.89352,35.734505 345.37708,28.470987 316,24.443959 300.53188,22.323579 257.0753,21.431247 241,22.903918 198.5208,26.795472 156.02529,37.886773 147.07569,47.418104 L 144.65137,50 h 126.75765 c 100.94467,0 126.67929,-0.25455 126.37286,-1.25 z"
       id="path4530"
       inkscape:connector-curvature="0" />
  </g>
</svg>
