<svg height='100px' width='100px' fill="#E9E5DD"
    xmlns="http://www.w3.org/2000/svg"
    xmlns:xlink="http://www.w3.org/1999/xlink" version="1.1" x="0px" y="0px" viewBox="0 0 100 100" enable-background="new 0 0 100 100" xml:space="preserve">
    <path d="M73.203,20.462c0,0,16.616-20.107,12.505-18.349c-2.824,1.199-19.672,6.67-19.672,6.67l-1.182-4.965l-9.601,6.413  l-2.469-7.354l-4.441,7.354L28.823,58.198l-5.24,13.73c-0.098,0.178-0.187,0.364-0.284,0.542l0.183-0.275l-9.846,25.809l1.244-0.249  l25.096-43.647c10.219-7.471,27.312-17.046,27.312-17.046l9.698-6.128c0,0-2.859-0.906-9.698,0.204l9.733-10.658L73.203,20.462z   M60.229,15.861c-1.925,2.363-3.812,4.754-5.642,7.187c-3.666,4.86-7.225,9.794-10.571,14.872  c-3.377,5.057-6.537,10.255-9.577,15.528c-1.521,2.636-2.982,5.309-4.396,8.007c-1.461,2.677-2.818,5.407-4.215,8.125  c1.076-2.861,2.299-5.662,3.533-8.461c1.281-2.776,2.629-5.522,4.031-8.243c2.811-5.438,5.96-10.701,9.333-15.813  c3.402-5.092,7.022-10.041,10.93-14.751c1.954-2.355,3.949-4.674,5.999-6.942c2.085-2.237,4.178-4.465,6.378-6.586  C64.09,11.142,62.114,13.464,60.229,15.861z"></path>
</svg>