<?xml version="1.0" encoding="iso-8859-1"?>
<!-- Generator: Adobe Illustrator 19.0.0, SVG Export Plug-In . SVG Version: 6.00 Build 0)  -->
<svg version="1.1" id="Layer_1" xmlns="http://www.w3.org/2000/svg" xmlns:xlink="http://www.w3.org/1999/xlink" x="0px" y="0px"
	 viewBox="0 0 509.287 509.287" style="enable-background:new 0 0 509.287 509.287;" xml:space="preserve">
<rect x="35.603" y="316.355" style="fill:#F1F3F7;" width="438.421" height="34.925"/>
<rect x="53.574" y="289.229" style="fill:#D6D6D8;" width="402.14" height="27.465"/>
<rect x="70.866" y="263.799" style="fill:#BDBDBE;" width="367.216" height="25.43"/>
<rect x="90.193" y="240.403" style="fill:#D6D6D8;" width="329.24" height="23.396"/>
<rect x="107.486" y="219.38" style="fill:#BDBDBE;" width="293.976" height="21.023"/>
<rect x="125.457" y="201.07" style="fill:#D6D6D8;" width="258.374" height="18.31"/>
<rect x="144.106" y="182.421" style="fill:#BDBDBE;" width="220.736" height="18.31"/>
<rect x="162.077" y="164.111" style="fill:#D6D6D8;" width="185.134" height="18.31"/>
<rect x="180.387" y="145.801" style="fill:#BDBDBE;" width="148.514" height="18.31"/>
<g>
	<rect x="202.426" y="145.801" style="fill:#646B79;" width="17.293" height="205.817"/>
	<rect x="289.568" y="145.801" style="fill:#646B79;" width="17.293" height="205.817"/>
</g>
<rect x="219.719" y="163.772" style="fill:#F1F3F7;" width="69.51" height="187.846"/>
<rect x="219.719" y="145.801" style="fill:#DDDEE6;" width="69.51" height="12.885"/>
<rect x="219.719" y="158.686" style="fill:#BDBDBE;" width="69.51" height="12.885"/>
<rect x="219.719" y="171.571" style="fill:#DDDEE6;" width="69.51" height="12.885"/>
<rect x="219.719" y="184.456" style="fill:#BDBDBE;" width="69.51" height="12.885"/>
<rect x="219.719" y="197.34" style="fill:#DDDEE6;" width="69.51" height="12.885"/>
<rect x="219.719" y="210.225" style="fill:#BDBDBE;" width="69.51" height="12.885"/>
<rect x="219.719" y="223.11" style="fill:#DDDEE6;" width="69.51" height="12.885"/>
<rect x="219.719" y="235.995" style="fill:#BDBDBE;" width="69.51" height="12.885"/>
<rect x="219.719" y="248.54" style="fill:#DDDEE6;" width="69.51" height="12.885"/>
<rect x="219.719" y="261.425" style="fill:#BDBDBE;" width="69.51" height="12.885"/>
<rect x="219.719" y="274.31" style="fill:#DDDEE6;" width="69.51" height="12.885"/>
<rect x="219.719" y="287.195" style="fill:#BDBDBE;" width="69.51" height="12.885"/>
<rect x="219.719" y="300.079" style="fill:#DDDEE6;" width="69.51" height="12.885"/>
<rect x="219.719" y="312.964" style="fill:#BDBDBE;" width="69.51" height="12.885"/>
<rect x="219.719" y="325.849" style="fill:#DDDEE6;" width="69.51" height="12.885"/>
<rect x="219.719" y="338.734" style="fill:#BDBDBE;" width="69.51" height="12.885"/>
<path style="fill:#F1F3F7;" d="M310.93,100.366H199.375c-3.73,0-6.781,3.052-6.781,6.781v38.654h125.118v-38.654
	C317.711,103.417,314.66,100.366,310.93,100.366z"/>
<rect x="241.081" y="123.083" style="fill:#646B79;" width="28.143" height="22.718"/>
<g>
</g>
<g>
</g>
<g>
</g>
<g>
</g>
<g>
</g>
<g>
</g>
<g>
</g>
<g>
</g>
<g>
</g>
<g>
</g>
<g>
</g>
<g>
</g>
<g>
</g>
<g>
</g>
<g>
</g>
</svg>
