<?xml version="1.0" encoding="UTF-8" standalone="no"?>
<!-- Created with Inkscape (http://www.inkscape.org/) -->

<svg xmlns:dc="http://purl.org/dc/elements/1.1/" 
   xmlns:cc="http://creativecommons.org/ns#" 
   xmlns:rdf="http://www.w3.org/1999/02/22-rdf-syntax-ns#" 
   xmlns:svg="http://www.w3.org/2000/svg" 
   xmlns="http://www.w3.org/2000/svg" 
   xmlns:sodipodi="http://sodipodi.sourceforge.net/DTD/sodipodi-0.dtd" 
   xmlns:inkscape="http://www.inkscape.org/namespaces/inkscape" version="1.1" id="svg815" width="94.955338" height="225" viewBox="0 0 94.955338 225" sodipodi:docname="wheat.svg" inkscape:version="0.92.4 (5da689c313, 2019-01-14)">
   <metadata id="metadata821">
      <rdf:RDF>
         <cc:Work rdf:about="">
            <dc:format>image/svg+xml</dc:format>
            <dc:type rdf:resource="http://purl.org/dc/dcmitype/StillImage" />
            <dc:title></dc:title>
         </cc:Work>
      </rdf:RDF>
   </metadata>
   <defs id="defs819" />
   <sodipodi:namedview pagecolor="#ffffff" bordercolor="#666666" borderopacity="1" objecttolerance="10" gridtolerance="10" guidetolerance="10" inkscape:pageopacity="0" inkscape:pageshadow="2" inkscape:window-width="1920" inkscape:window-height="1001" id="namedview817" showgrid="false" inkscape:zoom="3.4577778" inkscape:cx="111.70308" inkscape:cy="113.07841" inkscape:window-x="-9" inkscape:window-y="-9" inkscape:window-maximized="1" inkscape:current-layer="svg815" />
   <g id="g835" transform="translate(-65)">
      <path style="fill:#e5a232" d="M 109.65499,223.17126 C 108.25041,221.61922 108,218.7473 108,204.19031 V 187.0381 l -2.75,-0.60779 C 93.376315,183.80601 85.87462,179.86191 78.495228,172.36367 70.788104,164.53242 65,151.08375 65,141.00748 65,137.74502 68.071739,135 71.722506,135 72.975128,135 74,134.76818 74,134.48485 c 0,-0.28333 -1.327781,-2.87083 -2.950623,-5.75 C 66.016308,119.80543 63.39537,106.00463 66.2,103.2 c 0.66,-0.66 2.685,-1.2 4.5,-1.2 1.815,0 3.3,-0.45682 3.3,-1.01515 0,-0.55833 -1.327781,-3.37083 -2.950623,-6.249999 C 66.016308,85.805428 63.39537,72.00463 66.2,69.2 66.86,68.54 68.885,68 70.7,68 72.515,68 74,67.543183 74,66.984851 74,66.42652 72.672219,63.61402 71.049377,60.734851 66.016308,51.805428 63.39537,38.00463 66.2,35.2 c 2.728113,-2.728113 19.902676,0.14552 25.31423,4.235555 3.686339,2.786123 4.193721,1.937889 4.70666,-7.868536 0.424247,-8.110785 0.980552,-10.458771 3.96887,-16.751309 C 103.95239,6.8926649 109.67945,0 112.5,0 c 2.44263,0 8.06608,6.2129258 11.19209,12.36528 3.64062,7.165179 5.28218,13.981723 5.29604,21.991709 0.009,5.109253 0.33047,6.716683 1.26187,6.306519 13.91152,-6.126299 25.00489,-8.356712 28.23411,-5.676698 3.17047,2.631255 0.75103,16.372514 -4.53349,25.748041 C 152.32778,63.61402 151,66.42652 151,66.984851 151,67.543183 152.485,68 154.3,68 c 1.815,0 3.84,0.54 4.5,1.2 2.80463,2.80463 0.18369,16.605428 -4.84938,25.534851 C 152.32778,97.61402 151,100.39936 151,100.92449 c 0,0.52513 1.64193,1.09444 3.64872,1.26514 2.07839,0.1768 4.10651,1.04136 4.71239,2.00885 1.6494,2.63379 -0.88289,15.04073 -4.63479,22.70817 -1.77448,3.62634 -3.37632,6.93085 -3.55965,7.34335 -0.18334,0.4125 0.72904,0.75 2.02749,0.75 1.29846,0 3.36096,0.70052 4.58333,1.5567 2.53846,1.77801 2.78988,4.64733 1.10792,12.64408 -3.88119,18.45284 -18.91152,32.75079 -39.13541,37.22846 L 117,187.0381 v 16.75845 c 0,13.54923 -0.29811,17.18404 -1.5567,18.98094 -1.89192,2.70109 -3.59534,2.81697 -5.78831,0.39377 z M 146,153.08726 c 0,-2.7475 -2.77984,-4.71548 -4.83382,-3.42209 -2.36833,1.49134 -2.68669,4.48106 -0.63678,5.97999 2.20222,1.6103 5.4706,0.0821 5.4706,-2.5579 z m -0.19186,-33.25142 c 0.22967,-1.98569 -0.22822,-2.83439 -1.79799,-3.33262 -2.45233,-0.77834 -5.01015,0.98429 -5.01015,3.45256 0,2.42783 1.04926,3.17987 3.96258,2.84013 1.91059,-0.22281 2.61354,-0.95405 2.84556,-2.96007 z m -0.84801,-32.287801 c 2.64768,-3.190262 -1.25886,-8.204858 -4.37631,-5.617606 -2.09624,1.739726 -2.01355,4.71989 0.16618,5.989468 2.3457,1.366248 2.801,1.326033 4.21013,-0.371862 z m 0.84801,-34.712199 c 0.38053,-3.29008 -3.15147,-4.921078 -5.52243,-2.550126 -2.37095,2.370952 -0.73995,5.902959 2.55013,5.522425 2.0445,-0.236468 2.73583,-0.927803 2.9723,-2.972299 z M 115.94695,22.563922 C 117.54891,20.633679 115.62432,17 113,17 c -2.62432,0 -4.54891,3.633679 -2.94695,5.563922 C 110.70856,23.353765 112.03469,24 113,24 c 0.96531,0 2.29144,-0.646235 2.94695,-1.436078 z" id="path841" inkscape:connector-curvature="0" />
      <path style="fill:#976e2c" d="m 110.2,223.8 c -0.837,-0.837 -1.2,-6.22419 -1.2,-17.80887 0,-18.5722 -0.26322,-19.41431 -6.35268,-20.32349 -6.634457,-0.99056 -16.389873,-6.28046 -22.723906,-12.3221 C 72.48973,166.25501 67.335573,156.38396 65.76339,146.22679 64.470329,137.87291 65.349395,136 70.563428,136 c 4.401963,0 4.801489,-0.99357 2.043905,-5.08295 -5.231516,-7.75811 -9.208879,-24.28238 -6.601056,-27.42461 C 66.687514,102.6716 68.689789,102 70.455778,102 c 1.765989,0 3.479744,-0.26886 3.808346,-0.59746 0.328601,-0.3286 -0.676726,-2.691099 -2.23406,-5.249997 C 68.629423,90.564855 66.470709,84.314858 65.531346,77.33719 64.621385,70.577918 65.956887,68 70.368517,68 c 4.586025,0 4.871157,-0.680708 2.062753,-4.924494 -5.125322,-7.744884 -8.748727,-22.745299 -6.506316,-26.935282 0.896323,-1.674795 2.061999,-2.134908 5.36023,-2.115778 5.85994,0.03399 12.265631,1.644692 18.004705,4.527265 C 91.970828,39.89827 94.577351,41 95.082162,41 95.586973,41 96,37.897401 96,34.105335 c 0,-8.802949 2.815074,-17.961951 7.97397,-25.9437684 6.65047,-10.289568 10.48757,-10.3508658 16.95589,-0.2708702 5.06913,7.8995556 7.24893,14.6846036 7.82581,24.3593036 0.28696,4.8125 0.7534,8.75 1.03654,8.75 0.28315,0 2.85853,-1.108758 5.72308,-2.463906 10.33981,-4.891516 21.59713,-6.063062 23.53137,-2.448904 2.21057,4.130476 -0.93268,17.613029 -6.07672,26.065353 -1.55734,2.558898 -2.56267,4.921398 -2.23406,5.25 0.3286,0.328601 2.08162,0.597457 3.8956,0.597457 2.32062,0 3.62923,0.618617 4.41518,2.08719 2.21438,4.137596 -1.52833,19.228729 -6.65399,26.82986 -2.777,4.11816 -2.36174,5.08295 2.18779,5.08295 2.69035,0 3.70778,0.53852 4.56279,2.41506 1.72419,3.78418 -0.49482,13.93677 -4.98237,22.79574 -2.14827,4.24094 -3.66331,7.95344 -3.36675,8.25 0.29656,0.29656 1.9841,0.5392 3.75009,0.5392 5.07363,0 5.97726,1.9258 4.71875,10.05649 -2.32481,15.01952 -12.21616,28.78007 -25.44489,35.39813 -3.7686,1.88536 -8.88189,3.73232 -11.36286,4.10437 -2.83187,0.42466 -4.87271,1.35258 -5.48304,2.49298 C 116.43748,189.05107 116,197.2331 116,206.23426 116,222.3966 115.51444,225 112.5,225 c -0.605,0 -1.64,-0.54 -2.3,-1.2 z M 130,173.95958 c 9.54617,-4.84637 18.42269,-15.99328 20.47308,-25.70958 0.64629,-3.06262 0.52269,-3.24995 -2.14362,-3.24921 -3.74474,0.001 -14.06142,4.94696 -18.5627,8.89914 -1.97655,1.73543 -4.94295,5.2804 -6.59199,7.8777 -3.13777,4.94211 -6.46222,14.60159 -5.39325,15.67056 1.01569,1.01568 6.34121,-0.50485 12.21848,-3.48861 z M 106.45624,173.75 c -2.17897,-10.07828 -10.378474,-20.07191 -20.708621,-25.23987 -10.871292,-5.43869 -12.411253,-4.67644 -9.216071,4.56173 3.98043,11.50855 18.362139,23.6418 28.297912,23.87376 2.11171,0.0493 2.26377,-0.24941 1.62678,-3.19562 z m 23.34121,-33.45849 c 9.58597,-4.49065 18.45696,-15.6677 20.66858,-26.04151 0.65329,-3.06428 0.53119,-3.24995 -2.13657,-3.24921 -4.44676,0.001 -14.8329,5.45002 -19.73764,10.35476 -2.45819,2.45819 -5.57105,6.64632 -6.91746,9.30695 -2.82909,5.59055 -4.74709,11.93144 -3.87333,12.80519 0.93728,0.93729 6.17687,-0.44995 11.99642,-3.17618 z M 106.47195,139.75 C 105.30724,134.23978 99.938949,125.19844 95.284705,120.90831 90.974519,116.93532 83.338636,112.81839 77.75,111.45438 75.419214,110.8855 75,111.09887 75,112.85408 c 0,4.4362 4.187213,12.95673 9.046577,18.40882 5.406623,6.06609 15.102801,11.66477 20.282883,11.71155 2.66959,0.0241 2.79064,-0.15808 2.14249,-3.22445 z m -0.83799,-36.31086 C 101.12877,90.217111 90.869258,80.656389 77.75,77.454376 75.419214,76.885501 75,77.098874 75,78.854079 c 0,7.616792 8.945647,20.685604 17.651806,25.787751 5.42409,3.17873 12.544394,5.42559 13.719134,4.32917 0.48932,-0.4567 0.1664,-2.88059 -0.73698,-5.53186 z M 130,106.29048 c 9.65783,-4.70214 18.46283,-15.930529 20.53712,-26.189529 l 0.68726,-3.399048 -3.77881,0.613216 c -9.65513,1.566813 -21.13031,10.176606 -25.76195,19.329115 -2.88819,5.707306 -4.75311,11.952946 -3.84134,12.864716 1.03869,1.03869 6.24426,-0.33936 12.15772,-3.21847 z M 105.56321,69.190322 C 101.4139,56.697916 90.463523,46.628186 77.75,43.613901 c -2.496268,-0.591847 -2.749099,-0.396515 -2.740231,2.117047 0.02514,7.127603 9.095019,19.901998 17.71875,24.955841 5.336733,3.127534 12.472561,5.375831 13.631681,4.294954 0.47477,-0.442725 0.11767,-3.037657 -0.79699,-5.791421 z m 24.10995,3.359033 C 139.2065,68.184849 148.43271,56.536792 150.50439,46.25 151.07438,43.419749 150.89173,43 149.09018,43 c -7.06881,0 -19.51168,7.970153 -25.00075,16.01397 -3.55768,5.213514 -7.31701,14.80878 -6.38975,16.309114 0.76191,1.232799 5.74203,0.07913 11.97348,-2.773729 z M 116.42607,52.145903 c 3.78107,-7.461601 5.09347,-16.034563 3.67036,-23.975934 C 118.8959,21.470652 114.35232,11.5 112.5,11.5 c -1.85232,0 -6.3959,9.970652 -7.59643,16.669969 -1.37752,7.686961 -0.12923,16.47047 3.31211,23.305434 3.94631,7.837897 4.55327,7.887465 8.21039,0.6705 z" id="path839" inkscape:connector-curvature="0" />
      <path style="fill:#403c36" d="M 110.00291,222.50766 C 109.45131,221.05684 109,212.25767 109,202.95395 V 186.0381 l -2.75,-0.56451 C 94.204895,183.00097 87.320533,179.48053 79.775276,171.93528 72.949621,165.10962 68.393171,156.22654 66.806638,146.65212 65.407597,138.20918 65.921602,137 70.909598,137 c 2.184803,0 4.209477,-0.38365 4.499277,-0.85256 0.2898,-0.4689 -1.268154,-4.4064 -3.46212,-8.75 C 67.685651,118.96135 65.34343,109.75212 66.394176,105.56561 66.948494,103.35703 67.583885,103 70.960035,103 c 2.157062,0 4.15904,-0.38365 4.44884,-0.85256 0.2898,-0.4689 -1.268154,-4.406403 -3.46212,-8.749997 C 67.685651,84.961347 65.34343,75.752118 66.394176,71.565612 66.965577,69.288972 67.542805,69 71.519052,69 c 5.326792,0 5.492617,-0.727637 1.575314,-6.912453 -5.638965,-8.903053 -8.811332,-23.417702 -5.685284,-26.012092 2.676173,-2.221026 12.932476,-0.606527 21.261335,3.346858 3.94373,1.871936 7.43123,3.142707 7.75,2.823936 C 96.739188,41.927479 97,38.448342 97,34.514835 97,27.142261 98.86118,19.169261 102.03854,12.930513 104.43873,8.2177586 110.93395,0.5 112.5,0.5 c 1.59686,0 8.07702,7.7505736 10.57653,12.650013 C 126.0284,18.936151 128,27.703364 128,35.043432 c 0,3.642779 0.26081,6.884047 0.57958,7.202817 0.31877,0.318771 3.8322,-0.965076 7.80761,-2.852993 8.93093,-4.241279 19.32065,-5.655143 21.5771,-2.936278 2.23498,2.692984 -0.0609,13.462323 -4.91277,23.044589 C 150.82318,63.902428 149,67.839928 149,68.251567 149,68.663205 151.01643,69 153.48095,69 c 3.97624,0 4.55347,0.288972 5.12487,2.565612 1.05075,4.186506 -1.29147,13.395735 -5.55258,21.831831 -2.19396,4.343594 -3.75191,8.281097 -3.46211,8.749997 0.28979,0.46891 2.29177,0.85256 4.44883,0.85256 3.2909,0 4.01755,0.38094 4.51615,2.36755 1.04341,4.15727 -1.38676,13.8902 -5.50054,22.02989 -2.19525,4.3436 -3.75424,8.2811 -3.46444,8.75 0.28979,0.46891 2.29177,0.85256 4.44883,0.85256 3.2909,0 4.01755,0.38094 4.51615,2.36755 0.90996,3.62554 -1.24354,13.37825 -4.43728,20.09547 -6.61449,13.91192 -17.74245,22.08237 -35.36883,25.96875 l -2.75,0.60633 -0.0997,16.73095 c -0.0548,9.20202 -0.41205,17.85359 -0.79385,19.2257 -0.97422,3.50123 -3.85724,3.79098 -5.10356,0.51291 z M 108.20283,175 c -1.11144,-13.09045 -18.164021,-30.14316 -31.213496,-31.21374 -3.404966,-0.27934 -3.48694,-0.19969 -3.390318,3.29407 0.205034,7.41386 7.725962,19.45457 15.697195,25.13059 4.39838,3.13192 13.830869,6.82382 16.703789,6.53789 2.20919,-0.21987 2.46543,-0.65595 2.20283,-3.74881 z m 22.97302,-0.17441 c 3.18898,-1.69971 7.85826,-5.29281 10.37617,-7.98466 5.3536,-5.72343 10.7344,-16.48675 10.26916,-20.54162 -0.28045,-2.44429 -0.72273,-2.78177 -3.4874,-2.66097 -4.03416,0.17625 -13.38073,4.43877 -18.33225,8.36045 -7.0454,5.58006 -15.30971,21.14977 -13.59626,25.61494 0.90083,2.34754 7.45694,1.10999 14.77058,-2.78814 z m -15.62952,-15.89898 c 1.41428,-2.24036 2.41099,-4.55464 2.21492,-5.14285 -0.19607,-0.58821 -2.56363,-1.06947 -5.26125,-1.06947 -2.69762,0 -5.06518,0.48126 -5.26125,1.06947 C 106.89098,154.82707 111.55663,163 112.5,163 c 0.2612,0 1.63205,-1.83302 3.04633,-4.07339 z M 108.16579,141 C 106.89116,127.65128 90.35344,111.15881 76.916575,109.83628 L 73.5,109.5 l 0.178652,4.14245 c 0.357716,8.29445 9.000056,20.7408 18.108011,26.07841 5.827917,3.41539 11.142037,5.28752 14.213337,5.00726 2.22038,-0.2026 2.46262,-0.61959 2.16579,-3.72812 z m 22.2164,0.51532 c 10.60739,-5.36686 20.8923,-19.05615 21.0482,-28.01532 0.069,-3.96657 0.0404,-3.99779 -3.43039,-3.73567 -5.32651,0.40226 -15.38458,5.77814 -20.63611,11.02968 -4.97113,4.97112 -10.04978,14.49551 -11.06488,20.75081 l -0.60857,3.75018 4.6456,-0.52363 c 2.55508,-0.28799 7.07584,-1.75322 10.04615,-3.25605 z M 115.48746,125.01987 C 116.86935,122.8308 118,120.5808 118,120.01987 118,119.45033 115.57144,119 112.5,119 c -3.07144,0 -5.5,0.45033 -5.5,1.01987 0,1.1702 4.7833,8.98013 5.5,8.98013 0.2612,0 1.60556,-1.79106 2.98746,-3.98013 z m -7.0485,-14.9211 c 0.30634,-0.49567 -0.33468,-3.75817 -1.42449,-7.25 C 103.37249,91.179589 92.9485,80.655477 81.514031,77.103393 c -7.719645,-2.398085 -8.903705,-1.94174 -8.09436,3.119622 1.407927,8.80469 9.958353,20.635755 18.925129,26.186345 6.102886,3.77779 14.80644,5.77299 16.09416,3.68941 z m 21.84436,-2.44896 c 10.70471,-5.23733 20.9655,-18.834183 21.13861,-28.011375 0.0779,-4.128021 0.0693,-4.137715 -3.41126,-3.852171 -13.10448,1.075086 -29.05006,17.022675 -31.60544,31.609416 l -0.68247,3.89567 4.62405,-0.52119 c 2.54322,-0.28666 7.01466,-1.69082 9.93651,-3.12035 z M 115.48746,91.019872 C 116.86935,88.830801 118,86.580801 118,86.019872 118,85.45033 115.57144,85 112.5,85 109.42856,85 107,85.45033 107,86.019872 107,87.190072 111.7833,95 112.5,95 c 0.2612,0 1.60556,-1.791058 2.98746,-3.980128 z m 15.91498,-17.822331 c 10.53672,-5.707101 19.84911,-18.526659 20.01949,-27.559106 0.0749,-3.972627 -0.0365,-4.126214 -2.78148,-3.833412 -13.63941,1.45489 -28.01305,14.848337 -31.70911,29.546752 -0.96864,3.852074 -0.96353,5.010297 0.0248,5.621123 1.82083,1.125335 8.73393,-0.681317 14.44629,-3.775357 z m -22.97871,2.925865 c 0.92797,-1.501492 -2.45697,-11.39773 -5.58236,-16.320623 -1.64017,-2.58347 -4.797557,-6.337355 -7.016424,-8.341969 C 90.774004,46.897592 80.577414,42.001829 76.122192,42.000789 L 72.744384,42 l 0.660304,4.129315 c 1.75311,10.963347 13.042069,24.598748 23.781904,28.72504 5.662858,2.175695 10.349678,2.704995 11.237138,1.269051 z m 9.57029,-24.535127 c 3.32365,-6.528498 3.50598,-7.413153 3.50598,-17.01116 0,-9.575401 -0.18983,-10.502899 -3.5,-17.100822 -4.6763,-9.3209252 -6.32457,-9.320392 -11,0.0036 -3.31195,6.604828 -3.49853,7.518237 -3.47264,17 0.0225,8.252296 0.42865,10.902291 2.30183,15.020144 5.3345,11.72695 7.10322,12.030577 12.16483,2.088279 z" id="path837" inkscape:connector-curvature="0" />
   </g>
</svg>
